<svg width="19" height="29" viewBox="0 0 19 29" fill="none" xmlns="http://www.w3.org/2000/svg">
<path d="M9.45569 23.5435C14.6383 23.5435 18.8396 19.3421 18.8396 14.1595C18.8396 8.97695 14.6383 4.77563 9.45569 4.77563C4.2731 4.77563 0.0717773 8.97695 0.0717773 14.1595C0.0717773 19.3421 4.2731 23.5435 9.45569 23.5435Z" fill="#EDECEC"/>
<path d="M16.0701 26.7842L10.6705 22.8703L15.8506 20.1189L16.0701 26.7842Z" fill="#FFDBA7"/>
<path d="M11.9312 12.6073L6.69629 15.3878L10.6704 22.87L15.9053 20.0895L11.9312 12.6073Z" fill="#FFDBA7"/>
<path d="M16.0743 26.7821L14.3396 25.5248L16.0037 24.6409L16.0743 26.7821Z" fill="#2F2F2F"/>
<g style="mix-blend-mode:soft-light">
<path d="M14.1846 21.0034L15.8502 20.1187L16.0695 26.7788L14.1846 21.0034Z" fill="#D4D4D4"/>
</g>
<path d="M1.9255 4.28801C2.15813 4.16455 2.43026 4.13854 2.68207 4.21569C2.93387 4.29284 3.14472 4.46684 3.26826 4.69943L12.2647 21.6372C12.522 22.1217 12.4833 22.9969 11.9989 23.2542C11.5145 23.5115 10.7678 23.053 10.5107 22.5689L1.51424 5.63107C1.39067 5.39843 1.36459 5.12623 1.44171 4.87436C1.51884 4.62249 1.69286 4.41157 1.9255 4.28801V4.28801Z" fill="#07BE00"/>
<path d="M3.66568 3.36363C3.78129 3.30108 3.90809 3.26191 4.03883 3.24836C4.16958 3.23481 4.30171 3.24715 4.42769 3.28467C4.55367 3.32218 4.67103 3.38415 4.77306 3.46702C4.87509 3.5499 4.95979 3.65206 5.02234 3.76767L14.0188 20.7055C14.2761 21.1899 14.2315 22.0682 13.7393 22.3296C13.2472 22.591 12.4944 22.1359 12.2372 21.6517L3.24081 4.71392C3.18005 4.59736 3.14283 4.46997 3.1313 4.33903C3.11976 4.2081 3.13413 4.07617 3.17358 3.95078C3.21304 3.82539 3.2768 3.70901 3.36123 3.60826C3.44567 3.50752 3.54912 3.42439 3.66568 3.36363Z" fill="#07C700"/>
<path d="M5.40646 2.43922C5.63908 2.31576 5.91122 2.28975 6.16302 2.3669C6.41483 2.44406 6.62568 2.61806 6.74922 2.85064L15.7456 19.7885C16.0029 20.2729 15.9642 21.1481 15.4798 21.4054C14.9954 21.6627 14.2487 21.2042 13.9916 20.7201L4.99519 3.78228C4.87163 3.54964 4.84554 3.27745 4.92267 3.02558C4.9998 2.7737 5.17382 2.56279 5.40646 2.43922V2.43922Z" fill="#08E300"/>
<path d="M6.96728 3.26142L1.73242 6.04189L1.90709 6.37075L7.14196 3.59028L6.96728 3.26142Z" fill="#545152"/>
<path d="M6.35596 2.1104L1.12109 4.89087L1.73245 6.04188L6.96731 3.26142L6.35596 2.1104Z" fill="#927C6F"/>
<path d="M2.24761 1.58668L2.98696 1.19398C3.58306 0.877367 4.28052 0.810519 4.92591 1.00815C5.5713 1.20577 6.11176 1.65169 6.42837 2.24779L1.1938 5.0281C0.877188 4.43199 0.81034 3.73453 1.00797 3.08914C1.20559 2.44375 1.65151 1.9033 2.24761 1.58668V1.58668Z" fill="#FF6D84"/>
<g style="mix-blend-mode:soft-light">
<path d="M3.48096 0.931656C3.94615 0.68457 4.49045 0.632402 4.99411 0.786629C5.49777 0.940856 5.91953 1.28884 6.16662 1.75404L7.14193 3.59028L5.3879 4.52192L3.48096 0.931656Z" fill="#B2B2B2"/>
</g>
</svg>
