<svg width="141" height="684" viewBox="0 0 141 684" fill="none" xmlns="http://www.w3.org/2000/svg">
<path d="M69.7641 683.585L0.00135803 541.112H139.527L69.7641 683.585Z" fill="#FFDBA7"/>
<path d="M140.999 339.574H0L0 541.104H140.999V339.574Z" fill="#FFDBA7"/>
<path d="M69.8667 683.584L47.4515 637.814H92.2739L69.8667 683.584Z" fill="#2F2F2F"/>
<g style="mix-blend-mode:soft-light">
<path d="M94.6554 541.104H139.518L69.8115 683.465L94.6554 541.104Z" fill="#D4D4D4"/>
</g>
<path d="M23.626 53.1611C29.8906 53.1632 35.8979 55.6533 40.3269 60.0838C44.7559 64.5143 47.244 70.5224 47.244 76.787L47.244 533.001C47.244 546.049 36.6657 564.003 23.618 564.003C10.5704 564.003 0 546.041 0 533.001L0 76.787C0 70.521 2.48916 64.5117 6.91989 60.081C11.3506 55.6502 17.36 53.1611 23.626 53.1611V53.1611Z" fill="#07BE00"/>
<path d="M70.5022 53.1548C73.6289 53.1306 76.7297 53.7226 79.6276 54.8968C82.5255 56.0711 85.1637 57.8047 87.3917 59.9986C89.6196 62.1924 91.3935 64.8037 92.6123 67.6832C93.831 70.5627 94.4706 73.654 94.4946 76.7807L94.4946 532.995C94.4946 546.042 83.7569 563.997 70.5022 563.997C57.2474 563.997 46.5098 546.034 46.5098 532.995L46.5098 76.7807C46.5337 73.654 47.1733 70.5627 48.3921 67.6832C49.6108 64.8037 51.3847 62.1924 53.6127 59.9986C55.8406 57.8047 58.4788 56.0711 61.3767 54.8968C64.2746 53.7226 67.3755 53.1306 70.5022 53.1548Z" fill="#07C700"/>
<path d="M117.38 53.155C123.645 53.1571 129.652 55.6472 134.081 60.0777C138.51 64.5082 140.998 70.5164 140.998 76.781L140.998 532.995C140.998 546.043 130.42 563.997 117.372 563.997C104.325 563.997 93.7544 546.035 93.7544 532.995L93.7544 76.781C93.7544 70.515 96.2436 64.5056 100.674 60.0749C105.105 55.6442 111.114 53.155 117.38 53.155V53.155Z" fill="#08E300"/>
<path d="M140.999 87.8448L0 87.8448L0 96.7026L140.999 96.7026V87.8448Z" fill="#545152"/>
<path d="M140.999 56.8428L0 56.8428L0 87.8449H140.999V56.8428Z" fill="#927C6F"/>
<path d="M60.5386 0H80.4526C96.5084 0 111.907 6.37815 123.26 17.7313C134.613 29.0845 140.991 44.4827 140.991 60.5386H0C0 44.4827 6.37815 29.0845 17.7313 17.7313C29.0845 6.37815 44.4827 0 60.5386 0V0Z" fill="#FF6D84"/>
<g style="mix-blend-mode:soft-light">
<path d="M93.7566 0.000488281C106.286 0.000488281 118.303 4.97797 127.163 13.8379C136.023 22.6979 141.001 34.7146 141.001 47.2445V96.7029H93.7566V0.000488281Z" fill="#B2B2B2"/>
</g>
</svg>
